<svg width="17" height="37" viewBox="0 0 17 37" fill="none" xmlns="http://www.w3.org/2000/svg">
<path d="M4.04053 18.3096L4.01611 15.6362H7.8125C8.78092 15.6362 9.49707 15.4572 9.96094 15.0991C10.4248 14.7329 10.6567 14.208 10.6567 13.5244C10.6567 12.7432 10.4289 12.1816 9.97314 11.8398C9.51742 11.498 8.7972 11.3271 7.8125 11.3271H5.37109V26H1.52588V8.22656H7.8125C9.90397 8.22656 11.5397 8.62533 12.7197 9.42285C13.8997 10.2204 14.4897 11.4492 14.4897 13.1094C14.4897 13.8337 14.3229 14.5132 13.9893 15.1479C13.6637 15.7746 13.1429 16.2832 12.4268 16.6738C11.7106 17.0645 10.7788 17.272 9.63135 17.2964L8.55713 18.3096H4.04053ZM2.99072 26L4.47998 22.9116H8.39844C9.31803 22.9116 9.98942 22.7041 10.4126 22.2891C10.8358 21.8659 11.0474 21.341 11.0474 20.7144C11.0474 20.2179 10.9619 19.7907 10.791 19.4326C10.6201 19.0745 10.3516 18.7979 9.98535 18.6025C9.62728 18.4072 9.1512 18.3096 8.55713 18.3096H4.99268L5.01709 15.6362H9.42383L10.3149 16.6982C11.4136 16.6738 12.2965 16.8569 12.9639 17.2476C13.6312 17.63 14.1154 18.1346 14.4165 18.7612C14.7176 19.3879 14.8682 20.0511 14.8682 20.751C14.8682 22.4844 14.3107 23.7946 13.1958 24.6816C12.0809 25.5605 10.4818 26 8.39844 26H2.99072Z" fill="black"/>
</svg>
