<svg width="31" height="26" viewBox="0 0 31 26" fill="none" xmlns="http://www.w3.org/2000/svg">
<rect x="2.5" y="2.5" width="27" height="19" rx="2.5" fill="#938E8E" stroke="black" stroke-linejoin="round"/>
<path d="M1 7H28C29.1046 7 30 7.89543 30 9V23C30 24.1046 29.1046 25 28 25H3C1.89543 25 1 24.1046 1 23V7Z" fill="#D9D9D9" stroke="black" stroke-width="2" stroke-linejoin="round"/>
<mask id="path-3-inside-1_601_37" fill="white">
<path d="M0 3C0 1.34315 1.34315 0 3 0H13C14.6569 0 16 1.34315 16 3V8H0V3Z"/>
</mask>
<path d="M0 3C0 1.34315 1.34315 0 3 0H13C14.6569 0 16 1.34315 16 3V8H0V3Z" fill="#D9D9D9"/>
<path d="M-2 3C-2 0.238576 0.238576 -2 3 -2H13C15.7614 -2 18 0.238576 18 3H14C14 2.44772 13.5523 2 13 2H3C2.44772 2 2 2.44772 2 3H-2ZM16 8H0H16ZM-2 8V3C-2 0.238576 0.238576 -2 3 -2V2C2.44772 2 2 2.44772 2 3V8H-2ZM13 -2C15.7614 -2 18 0.238576 18 3V8H14V3C14 2.44772 13.5523 2 13 2V-2Z" fill="black" mask="url(#path-3-inside-1_601_37)"/>
<rect width="16" height="4" transform="matrix(1 0 0 -1 8 16)" fill="white"/>
</svg>
