<svg width="25" height="37" viewBox="0 0 25 37" fill="none" xmlns="http://www.w3.org/2000/svg">
<path d="M13.6597 17.7725H4.06494V15.8682H13.6597V17.7725ZM4.43115 26H2.06299V8.22656H4.43115V26ZM15.7349 26H13.3667V8.22656H15.7349V26Z" fill="black"/>
<path d="M24.3047 30H18.709V29.2266L21.5039 26.1152C21.8516 25.7324 22.1191 25.4082 22.3066 25.1426C22.498 24.873 22.6309 24.6309 22.7051 24.416C22.7793 24.2012 22.8164 23.9824 22.8164 23.7598C22.8164 23.3379 22.6875 22.9785 22.4297 22.6816C22.1758 22.3809 21.8125 22.2305 21.3398 22.2305C20.957 22.2305 20.6387 22.3047 20.3848 22.4531C20.1348 22.6016 19.9473 22.8066 19.8223 23.0684C19.7012 23.3301 19.6406 23.6328 19.6406 23.9766H18.5449C18.5449 23.4961 18.6504 23.0566 18.8613 22.6582C19.0723 22.2598 19.3848 21.9434 19.7988 21.709C20.2168 21.4707 20.7305 21.3516 21.3398 21.3516C22.1445 21.3516 22.7734 21.5605 23.2266 21.9785C23.6836 22.3965 23.9121 22.9473 23.9121 23.6309C23.9121 23.9668 23.8398 24.3047 23.6953 24.6445C23.5508 24.9844 23.3574 25.3223 23.1152 25.6582C22.873 25.9902 22.6055 26.3145 22.3125 26.6309L20.0273 29.1211H24.3047V30Z" fill="#938E8E"/>
</svg>
