<svg width="25" height="37" viewBox="0 0 25 37" fill="none" xmlns="http://www.w3.org/2000/svg">
<path d="M13.6597 17.7725H4.06494V15.8682H13.6597V17.7725ZM4.43115 26H2.06299V8.22656H4.43115V26ZM15.7349 26H13.3667V8.22656H15.7349V26Z" fill="black"/>
<path d="M21.0645 25.207C21.4395 25.207 21.75 25.1426 21.9961 25.0137C22.2461 24.8848 22.4316 24.7109 22.5527 24.4922C22.6777 24.2695 22.7402 24.0176 22.7402 23.7363C22.7402 23.4121 22.6855 23.1387 22.5762 22.916C22.4668 22.6895 22.3027 22.5195 22.084 22.4062C21.8652 22.2891 21.5898 22.2305 21.2578 22.2305C20.9531 22.2305 20.6855 22.291 20.4551 22.4121C20.2246 22.5332 20.0449 22.7031 19.916 22.9219C19.7871 23.1406 19.7227 23.4004 19.7227 23.7012H18.627C18.627 23.2637 18.7363 22.8691 18.9551 22.5176C19.1738 22.1621 19.4805 21.8789 19.875 21.668C20.2695 21.457 20.7305 21.3516 21.2578 21.3516C21.7734 21.3516 22.2246 21.4434 22.6113 21.627C22.998 21.8066 23.2988 22.0762 23.5137 22.4355C23.7285 22.791 23.8359 23.2324 23.8359 23.7598C23.8359 23.9785 23.7852 24.209 23.6836 24.4512C23.5859 24.6934 23.4316 24.9219 23.2207 25.1367C23.0137 25.3477 22.7441 25.5215 22.4121 25.6582C22.0801 25.791 21.6816 25.8574 21.2168 25.8574H20.291V25.207H21.0645ZM20.291 25.4414H21.2168C21.7598 25.4414 22.209 25.5059 22.5645 25.6348C22.9199 25.7637 23.1992 25.9355 23.4023 26.1504C23.6094 26.3613 23.7539 26.5957 23.8359 26.8535C23.9219 27.1113 23.9648 27.3672 23.9648 27.6211C23.9648 28.1523 23.8457 28.6035 23.6074 28.9746C23.373 29.3457 23.0508 29.6289 22.6406 29.8242C22.2344 30.0195 21.7754 30.1172 21.2637 30.1172C20.8926 30.1172 20.543 30.0645 20.2148 29.959C19.8867 29.8535 19.5977 29.7012 19.3477 29.502C19.1016 29.2988 18.9082 29.0508 18.7676 28.7578C18.627 28.4609 18.5566 28.123 18.5566 27.7441H19.6523C19.6523 28.041 19.7168 28.3027 19.8457 28.5293C19.9785 28.752 20.1641 28.9258 20.4023 29.0508C20.6445 29.1758 20.9316 29.2383 21.2637 29.2383C21.7598 29.2383 22.1504 29.1055 22.4355 28.8398C22.7246 28.5742 22.8691 28.1758 22.8691 27.6445C22.8691 27.2891 22.7949 26.9961 22.6465 26.7656C22.498 26.5352 22.2891 26.3652 22.0195 26.2559C21.75 26.1426 21.4316 26.0859 21.0645 26.0859H20.291V25.4414Z" fill="#938E8E"/>
</svg>
