<svg width="24" height="37" viewBox="0 0 24 37" fill="none" xmlns="http://www.w3.org/2000/svg">
<path d="M13.6597 17.7725H4.06494V15.8682H13.6597V17.7725ZM4.43115 26H2.06299V8.22656H4.43115V26ZM15.7349 26H13.3667V8.22656H15.7349V26Z" fill="black"/>
<path d="M20.0918 27.5977C20.0957 27.2227 20.1289 26.916 20.1914 26.6777C20.2578 26.4355 20.3633 26.2148 20.5078 26.0156C20.6562 25.8164 20.8535 25.5898 21.0996 25.3359C21.2793 25.1523 21.4453 24.9805 21.5977 24.8203C21.75 24.6562 21.873 24.4805 21.9668 24.293C22.0605 24.1055 22.1074 23.877 22.1074 23.6074C22.1074 23.2012 22 22.8809 21.7852 22.6465C21.5703 22.4082 21.2598 22.2891 20.8535 22.2891C20.5137 22.2891 20.209 22.3848 19.9395 22.5762C19.6699 22.7637 19.5352 23.0605 19.5352 23.4668H18.4395C18.4473 23.0254 18.5566 22.6465 18.7676 22.3301C18.9824 22.0137 19.2715 21.7715 19.6348 21.6035C19.998 21.4355 20.4043 21.3516 20.8535 21.3516C21.5996 21.3516 22.1758 21.5508 22.582 21.9492C22.9922 22.3477 23.1973 22.8906 23.1973 23.5781C23.1973 23.9297 23.127 24.2539 22.9863 24.5508C22.8457 24.8438 22.6641 25.1191 22.4414 25.377C22.2188 25.6348 21.9824 25.8809 21.7324 26.1152C21.5176 26.3105 21.373 26.5352 21.2988 26.7891C21.2246 27.0391 21.1875 27.3086 21.1875 27.5977H20.0918ZM20.0449 29.4551C20.0449 29.2832 20.0996 29.1367 20.209 29.0156C20.3184 28.8945 20.4785 28.834 20.6895 28.834C20.9004 28.834 21.0605 28.8945 21.1699 29.0156C21.2793 29.1367 21.334 29.2832 21.334 29.4551C21.334 29.627 21.2793 29.7715 21.1699 29.8887C21.0605 30.0059 20.9004 30.0645 20.6895 30.0645C20.4785 30.0645 20.3184 30.0059 20.209 29.8887C20.0996 29.7715 20.0449 29.627 20.0449 29.4551Z" fill="#938E8E"/>
</svg>
