<svg width="23" height="21" viewBox="0 0 23 21" fill="none" xmlns="http://www.w3.org/2000/svg">
<rect width="19" height="2" rx="1" transform="matrix(1 0 0 -1 4 4)" fill="black"/>
<rect width="19" height="2" rx="1" transform="matrix(1 0 0 -1 4 11)" fill="#938E8E"/>
<rect width="19" height="2" rx="1" transform="matrix(1 0 0 -1 4 18)" fill="#D9D9D9"/>
<path d="M1.78223 5H1.32568V1.98486L0.41748 2.31934V1.91162L1.71143 1.42578H1.78223V5Z" fill="black"/>
<path d="M2.62695 12H0.29541V11.6777L1.45996 10.3813C1.60482 10.2218 1.71631 10.0868 1.79443 9.97607C1.87419 9.86377 1.92952 9.76286 1.96045 9.67334C1.99137 9.58382 2.00684 9.49268 2.00684 9.3999C2.00684 9.22412 1.95312 9.07438 1.8457 8.95068C1.73991 8.82536 1.58854 8.7627 1.3916 8.7627C1.2321 8.7627 1.09945 8.79362 0.993652 8.85547C0.889486 8.91732 0.811361 9.00277 0.759277 9.11182C0.708822 9.22087 0.683594 9.34701 0.683594 9.49023H0.227051C0.227051 9.29004 0.270996 9.10693 0.358887 8.94092C0.446777 8.7749 0.576986 8.64307 0.749512 8.54541C0.923665 8.44613 1.1377 8.39648 1.3916 8.39648C1.72689 8.39648 1.98893 8.48356 2.17773 8.65771C2.36816 8.83187 2.46338 9.06136 2.46338 9.34619C2.46338 9.48617 2.43327 9.62695 2.37305 9.76855C2.31283 9.91016 2.23226 10.0509 2.13135 10.1909C2.03044 10.3293 1.91895 10.4644 1.79688 10.5962L0.844727 11.6338H2.62695V12Z" fill="black"/>
<path d="M1.27686 17.0029C1.43311 17.0029 1.5625 16.9761 1.66504 16.9224C1.76921 16.8687 1.84652 16.7962 1.89697 16.7051C1.94906 16.6123 1.9751 16.5073 1.9751 16.3901C1.9751 16.255 1.95231 16.1411 1.90674 16.0483C1.86117 15.9539 1.79281 15.8831 1.70166 15.8359C1.61051 15.7871 1.49577 15.7627 1.35742 15.7627C1.23047 15.7627 1.11898 15.7879 1.02295 15.8384C0.926921 15.8888 0.852051 15.9596 0.79834 16.0508C0.744629 16.1419 0.717773 16.2502 0.717773 16.3755H0.26123C0.26123 16.1932 0.306803 16.0288 0.397949 15.8823C0.489095 15.7342 0.616862 15.6162 0.78125 15.5283C0.945638 15.4404 1.1377 15.3965 1.35742 15.3965C1.57227 15.3965 1.76025 15.4347 1.92139 15.5112C2.08252 15.5861 2.20785 15.6984 2.29736 15.8481C2.38688 15.9963 2.43164 16.1802 2.43164 16.3999C2.43164 16.491 2.41048 16.5871 2.36816 16.688C2.32747 16.7889 2.26318 16.8841 2.17529 16.9736C2.08903 17.0615 1.97673 17.134 1.83838 17.1909C1.70003 17.2463 1.53402 17.2739 1.34033 17.2739H0.95459V17.0029H1.27686ZM0.95459 17.1006H1.34033C1.56657 17.1006 1.75374 17.1274 1.90186 17.1812C2.04997 17.2349 2.16634 17.3065 2.25098 17.396C2.33724 17.4839 2.39746 17.5815 2.43164 17.689C2.46745 17.7964 2.48535 17.903 2.48535 18.0088C2.48535 18.2301 2.43571 18.4181 2.33643 18.5728C2.23877 18.7274 2.10449 18.8454 1.93359 18.9268C1.76432 19.0081 1.57308 19.0488 1.35986 19.0488C1.20524 19.0488 1.05957 19.0269 0.922852 18.9829C0.786133 18.939 0.66569 18.8755 0.561523 18.7925C0.458984 18.7078 0.378418 18.6045 0.319824 18.4824C0.26123 18.3587 0.231934 18.2179 0.231934 18.0601H0.688477C0.688477 18.1838 0.715332 18.2928 0.769043 18.3872C0.824382 18.48 0.901693 18.5524 1.00098 18.6045C1.10189 18.6566 1.22152 18.6826 1.35986 18.6826C1.56657 18.6826 1.72933 18.6273 1.84814 18.5166C1.96859 18.4059 2.02881 18.2399 2.02881 18.0186C2.02881 17.8704 1.99788 17.7484 1.93604 17.6523C1.87419 17.5563 1.78711 17.4855 1.6748 17.4399C1.5625 17.3927 1.42985 17.3691 1.27686 17.3691H0.95459V17.1006Z" fill="black"/>
</svg>
