<svg width="23" height="37" viewBox="0 0 23 37" fill="none" xmlns="http://www.w3.org/2000/svg">
<path d="M15.5234 21.5078C15.5234 20.9463 15.4054 20.4702 15.1694 20.0796C14.9334 19.689 14.5103 19.335 13.8999 19.0176C13.2896 18.7002 12.4229 18.3787 11.2998 18.0532C10.4209 17.8009 9.62744 17.5161 8.91943 17.1987C8.21956 16.8732 7.61735 16.5029 7.11279 16.0879C6.60824 15.6729 6.22168 15.1968 5.95312 14.6597C5.68457 14.1226 5.55029 13.5081 5.55029 12.8164C5.55029 11.8887 5.7985 11.0627 6.29492 10.3384C6.79948 9.60596 7.50342 9.03223 8.40674 8.61719C9.31006 8.19401 10.368 7.98242 11.5806 7.98242C12.9233 7.98242 14.0627 8.23877 14.9985 8.75146C15.9344 9.25602 16.6465 9.91927 17.1348 10.7412C17.623 11.555 17.8672 12.4258 17.8672 13.3535H15.4868C15.4868 12.6862 15.3444 12.0921 15.0596 11.5713C14.7829 11.0505 14.3556 10.6436 13.7778 10.3506C13.2 10.0495 12.4676 9.89893 11.5806 9.89893C10.7505 9.89893 10.0628 10.0251 9.51758 10.2773C8.98047 10.5296 8.58171 10.8714 8.32129 11.3027C8.06087 11.734 7.93066 12.2264 7.93066 12.7798C7.93066 13.2762 8.07308 13.7197 8.35791 14.1104C8.64274 14.4928 9.09033 14.8387 9.70068 15.1479C10.311 15.4572 11.1004 15.7502 12.0688 16.0269C13.4116 16.4012 14.5143 16.8366 15.377 17.333C16.2396 17.8294 16.8743 18.4154 17.2812 19.0908C17.6963 19.7663 17.9038 20.5638 17.9038 21.4834C17.9038 22.4437 17.6475 23.2819 17.1348 23.998C16.6221 24.7142 15.9019 25.2676 14.9741 25.6582C14.0464 26.0488 12.9559 26.2441 11.7026 26.2441C10.8807 26.2441 10.071 26.1302 9.27344 25.9023C8.48405 25.6745 7.76383 25.3327 7.11279 24.877C6.46989 24.4212 5.95312 23.8597 5.5625 23.1924C5.18001 22.5169 4.98877 21.7357 4.98877 20.8486H7.35693C7.35693 21.459 7.47493 21.9839 7.71094 22.4233C7.94694 22.8628 8.26839 23.2249 8.67529 23.5098C9.08219 23.7946 9.54606 24.0062 10.0669 24.1445C10.5877 24.2747 11.133 24.3398 11.7026 24.3398C12.5246 24.3398 13.2163 24.2259 13.7778 23.998C14.3475 23.762 14.7788 23.4325 15.0718 23.0093C15.3729 22.5861 15.5234 22.0856 15.5234 21.5078Z" fill="#938E8E"/>
<rect width="23" height="2" rx="1" transform="matrix(1 0 0 -1 0 18)" fill="black"/>
</svg>
