<svg width="16" height="37" viewBox="0 0 16 37" fill="none" xmlns="http://www.w3.org/2000/svg">
<path d="M14.5874 8.22656V20.2505C14.5874 21.5851 14.2863 22.696 13.6841 23.583C13.09 24.4701 12.3006 25.1374 11.3159 25.585C10.3394 26.0244 9.27734 26.2441 8.12988 26.2441C6.92546 26.2441 5.83496 26.0244 4.8584 25.585C3.88997 25.1374 3.12093 24.4701 2.55127 23.583C1.98975 22.696 1.70898 21.5851 1.70898 20.2505V8.22656H4.05273V20.2505C4.05273 21.1782 4.22363 21.9432 4.56543 22.5454C4.90723 23.1476 5.3833 23.5993 5.99365 23.9004C6.604 24.1934 7.31608 24.3398 8.12988 24.3398C8.95182 24.3398 9.66797 24.1934 10.2783 23.9004C10.8887 23.5993 11.3607 23.1476 11.6943 22.5454C12.0361 21.9432 12.207 21.1782 12.207 20.2505V8.22656H14.5874Z" fill="#938E8E"/>
<rect width="16" height="2" rx="1" transform="matrix(1 0 0 -1 0 30)" fill="black"/>
</svg>
